<?xml version="1.0" encoding="utf-8"?><svg viewBox="0 0 30 22" xmlns="http://www.w3.org/2000/svg" xmlns:xlink="http://www.w3.org/1999/xlink"><style>:root>svg{display:none}:root>svg:target{display:block}</style><svg viewBox="0 0 28 16" id="footer--arrow" xmlns="http://www.w3.org/2000/svg"><path d="M2 14L13.293 2.707a1 1 0 011.414 0L26 14"/></svg><svg viewBox="0 0 30 22" id="header--eye" xmlns="http://www.w3.org/2000/svg"><path fill-rule="evenodd" clip-rule="evenodd" d="M4.393.296a.994.994 0 011.415 0l3.53 3.562c1.909-.604 3.855-.932 5.662-.932 4.936 0 10.917 2.444 14.325 6.294.9 1.016.9 2.544 0 3.56-1.705 1.927-4.055 3.501-6.595 4.594l2.877 2.903c.39.394.39 1.033 0 1.427a.994.994 0 01-1.415 0L4.393 1.723a1.016 1.016 0 010-1.427zm8.575 7.226L11.52 6.06a5.932 5.932 0 013.033-1.108 13.518 13.518 0 01.896 0C18.545 5.184 21 7.795 21 11c0 1.31-.41 2.521-1.107 3.511l-1.447-1.46C18.797 12.45 19 11.747 19 11c0-2.23-1.791-4.037-4-4.037-.742 0-1.437.204-2.032.56zm1.514 1.528l2.45 2.473c.044-.167.068-.342.068-.523a2.01 2.01 0 00-2-2.018c-.18 0-.353.023-.518.068zM5.457 5.507C3.625 6.506 1.965 7.762.675 9.22a2.686 2.686 0 000 3.56c3.408 3.85 9.389 6.294 14.325 6.294 1.135 0 2.326-.13 3.528-.375l-1.856-1.873c-.392.115-.801.19-1.222.222a13.363 13.363 0 01-.9 0C11.453 16.815 9 14.204 9 11c0-.584.081-1.148.233-1.681l-1.556-1.57A8.092 8.092 0 007 11c0 1.753.556 3.378 1.5 4.703-2.457-.987-4.743-2.466-6.34-4.27a.65.65 0 010-.866c1.252-1.415 2.929-2.63 4.779-3.564L5.457 5.507zM23 11a8.075 8.075 0 00-1.5-4.703c2.457.987 4.743 2.466 6.34 4.27a.649.649 0 010 .866c-1.596 1.804-3.883 3.283-6.34 4.27A8.074 8.074 0 0023 11z"/></svg><svg viewBox="0 0 15 15" id="header--search" xmlns="http://www.w3.org/2000/svg"><path d="M5.625 1.5A4.113 4.113 0 019.75 5.625c0 .9-.3 1.763-.863 2.512l-.337.45-.45.338a4.175 4.175 0 01-2.475.825A4.113 4.113 0 011.5 5.625 4.113 4.113 0 015.625 1.5zm0-1.5A5.617 5.617 0 000 5.625a5.617 5.617 0 005.625 5.625c1.275 0 2.475-.45 3.412-1.162L13.95 15 15 13.95l-4.912-4.912a5.676 5.676 0 001.162-3.413A5.617 5.617 0 005.625 0z"/></svg></svg>